<?xml version="1.0" encoding="UTF-8"?>
<svg id="Layer_1" data-name="Layer 1" xmlns="http://www.w3.org/2000/svg" viewBox="0 0 1125.08 623.99">
  <defs>
    <style>
      .cls-1 {
        fill: #1d1d1b;
      }
    </style>
  </defs>
  <path class="cls-1" d="m271.35,138.96l-52.79,152.76h-3.32l-59.68-152.76-14.54,129.55c-1.79,14.79,4.34,17.85,24.99,19.13v2.81h-54.32v-2.81c14.28-.76,21.42-3.57,22.7-15.3l16.32-138.99c0-12.24-6.89-18.11-23.21-19.13v-2.81h51.01c.51,5.87,1.78,9.44,3.83,15.05l46.41,120.88,41.06-120.88c1.79-5.61,3.32-9.18,3.83-15.05h49.99v2.81c-18.36,1.02-22.95,6.88-22.95,19.13l15.81,138.99c1.53,11.98,5.87,14.54,20.91,15.3v2.81h-74.47v-2.81c20.15-1.28,24.74-4.34,22.7-22.44l-14.28-126.24Z"/>
  <path class="cls-1" d="m411.1,274.05c0,6.23,2.86,8.92,7.74,8.92,2.36,0,4.54-.5,6.4-1.51l.34.67c-4.21,6.4-10.6,10.1-17.67,10.1-8.58,0-14.31-5.72-15.48-14.47-5.55,6.9-14.81,14.47-26.42,14.47-12.45,0-22.05-8.42-22.05-20.87s10.43-19.86,24.4-24.74l23.9-8.42v-14.81c0-11.44-3.87-19.86-13.97-19.86-8.75,0-12.79,7.07-12.79,16.66,0,3.36.34,7.07,1.51,10.26l-11.28,1.52c-3.87-1.01-7.07-5.05-7.07-10.1,0-12.79,15.15-20.87,32.14-20.87,19.86,0,30.29,8.08,30.29,26.59v46.45Zm-18.85,2.19v-35.85l-17.33,7.24c-8.08,3.37-13.13,8.58-13.13,18.18s5.89,16.66,15.15,16.66c5.22,0,10.6-1.51,15.31-6.23Z"/>
  <path class="cls-1" d="m496.42,210.93l12.12-9.93h.67l-1.01,20.87v95.09c0,6.56,3.37,7.24,11.78,7.74v1.85h-45.78v-1.85c11.11-1.01,15.15-1.35,15.15-7.91v-40.56c-5.89,8.75-14.47,16.32-27.77,16.32-19.86,0-33.83-17.67-33.83-41.23,0-29.28,18.51-50.32,44.6-50.32,10.1,0,18.68,4.54,24.07,9.93Zm-49.65,31.98c0,21.04,8.58,38.54,26.42,38.54,6.73,0,11.95-2.36,16.16-6.73v-48.81c0-14.64-6.73-22.38-16.83-22.38-16.16,0-25.75,16.66-25.75,39.38Z"/>
  <path class="cls-1" d="m589.82,274.05c0,6.23,2.86,8.92,7.74,8.92,2.36,0,4.54-.5,6.4-1.51l.34.67c-4.21,6.4-10.6,10.1-17.67,10.1-8.58,0-14.31-5.72-15.48-14.47-5.55,6.9-14.81,14.47-26.42,14.47-12.45,0-22.05-8.42-22.05-20.87s10.43-19.86,24.4-24.74l23.9-8.42v-14.81c0-11.44-3.87-19.86-13.97-19.86-8.75,0-12.79,7.07-12.79,16.66,0,3.36.34,7.07,1.51,10.26l-11.28,1.52c-3.87-1.01-7.07-5.05-7.07-10.1,0-12.79,15.15-20.87,32.14-20.87,19.86,0,30.29,8.08,30.29,26.59v46.45Zm-18.85,2.19v-35.85l-17.33,7.24c-8.08,3.37-13.13,8.58-13.13,18.18s5.89,16.66,15.15,16.66c5.22,0,10.6-1.51,15.31-6.23Z"/>
  <path class="cls-1" d="m636.09,281.28c0,6.56,3.2,7.24,11.61,7.74v1.85h-42.07v-1.85c8.41-.5,11.61-1.18,11.61-7.74v-106.36l-11.11-6.4v-.67l29.28-8.75h.67v122.18Z"/>
  <path class="cls-1" d="m308.51,333.53c46.16,0,69.88,22.96,69.88,49.74,0,30.86-24.74,52.03-70.14,52.03h-19.13v55.35c0,15.05,5.87,17.09,31.12,19.13v2.81h-82.64v-2.81c18.36-1.78,21.42-3.83,21.42-17.85v-137.73c0-14.03-3.06-16.07-21.42-17.85v-2.81h70.9Zm-19.38,96.92h13.01c30.35,0,44.89-17.34,44.89-46.16,0-26.02-14.79-46.16-44.89-46.16h-13.01v92.33Z"/>
  <path class="cls-1" d="m459.4,423.17c0,6.23,2.86,8.92,7.74,8.92,2.36,0,4.54-.5,6.4-1.51l.34.67c-4.21,6.4-10.6,10.1-17.67,10.1-8.58,0-14.31-5.72-15.48-14.47-5.55,6.9-14.81,14.47-26.42,14.47-12.45,0-22.05-8.42-22.05-20.87s10.43-19.86,24.4-24.74l23.9-8.42v-14.81c0-11.44-3.87-19.86-13.97-19.86-8.75,0-12.79,7.07-12.79,16.66,0,3.36.34,7.07,1.51,10.26l-11.28,1.52c-3.87-1.01-7.07-5.05-7.07-10.1,0-12.79,15.15-20.87,32.14-20.87,19.86,0,30.29,8.08,30.29,26.59v46.45Zm-18.85,2.19v-35.85l-17.33,7.24c-8.08,3.37-13.13,8.58-13.13,18.18s5.89,16.66,15.15,16.66c5.22,0,10.6-1.51,15.31-6.23Z"/>
  <path class="cls-1" d="m541.36,379.07c0-12.28-4.54-17.67-14.81-17.67-7.24,0-14.81,2.86-20.53,7.07v61.93c0,6.56,3.37,7.24,11.78,7.74v1.85h-42.24v-1.85c8.41-.5,11.61-1.18,11.61-7.74v-64.46l-11.11-6.4v-.67l29.96-8.75h.67l-.67,17c6.56-7.74,17.67-17,30.97-17,15.65,0,23.22,9.42,23.22,27.1v53.18c0,6.56,3.2,7.24,11.61,7.74v1.85h-42.08v-1.85c8.42-.5,11.61-1.18,11.61-7.74v-51.33Z"/>
  <path class="cls-1" d="m659.49,393.71c0,28.95-18.34,47.96-41.74,47.96s-40.9-18.68-40.9-43.76c0-28.78,18.51-47.8,41.74-47.8,24.4,0,40.9,18.68,40.9,43.59Zm-19.86,5.22c0-24.24-6.9-46.45-21.88-46.45-13.46,0-20.87,15.82-20.87,40.39s6.9,46.45,21.71,46.45c13.63,0,21.04-15.99,21.04-40.39Z"/>
  <path class="cls-1" d="m719.57,350.12c3.03,0,5.55,1.01,6.73,2.19v15.82h-2.69c-10.43,0-19.86,1.18-27.1,9.26v52.84c0,6.56,4.21,6.9,15.32,7.91v1.85h-45.78v-1.85c8.41-.5,11.61-1.18,11.61-7.74v-64.46l-11.11-6.4v-.67l29.96-8.75h.67l-.67,25.75c6.9-16.32,12.96-25.75,23.06-25.75Z"/>
  <path class="cls-1" d="m798.49,423.17c0,6.23,2.86,8.92,7.74,8.92,2.36,0,4.54-.5,6.4-1.51l.34.67c-4.21,6.4-10.6,10.1-17.67,10.1-8.58,0-14.31-5.72-15.48-14.47-5.55,6.9-14.81,14.47-26.42,14.47-12.45,0-22.05-8.42-22.05-20.87s10.43-19.86,24.4-24.74l23.9-8.42v-14.81c0-11.44-3.87-19.86-13.97-19.86-8.75,0-12.79,7.07-12.79,16.66,0,3.36.34,7.07,1.51,10.26l-11.28,1.52c-3.87-1.01-7.07-5.05-7.07-10.1,0-12.79,15.15-20.87,32.14-20.87,19.86,0,30.29,8.08,30.29,26.59v46.45Zm-18.85,2.19v-35.85l-17.33,7.24c-8.08,3.37-13.13,8.58-13.13,18.18s5.89,16.66,15.15,16.66c5.22,0,10.6-1.51,15.31-6.23Z"/>
  <path class="cls-1" d="m960.73,438.14v1.85h-42.07v-1.85c8.42-.5,11.61-1.18,11.61-7.74v-51.33c0-12.28-4.38-17.67-13.97-17.67-6.73,0-13.97,2.86-19.19,7.07v61.93c0,6.56,3.03,7.24,11.44,7.74v1.85h-41.74v-1.85c8.41-.5,11.44-1.18,11.44-7.74v-51.33c0-12.28-4.21-17.67-13.97-17.67-6.73,0-13.8,2.86-19.19,7.07v61.93c0,6.56,3.2,7.24,11.61,7.74v1.85h-42.07v-1.85c8.41-.5,11.61-1.18,11.61-7.74v-64.46l-11.11-6.4v-.67l29.96-8.75h.67l-.67,17c6.23-7.74,16.83-17,29.62-17,11.95,0,19.86,5.89,22.22,17.17,6.23-7.74,17-17.17,29.62-17.17,15.15,0,22.38,9.42,22.38,27.1v53.18c0,6.56,3.37,7.24,11.78,7.74Z"/>
  <path class="cls-1" d="m1033.25,423.17c0,6.23,2.86,8.92,7.74,8.92,2.36,0,4.54-.5,6.4-1.51l.34.67c-4.21,6.4-10.6,10.1-17.67,10.1-8.58,0-14.31-5.72-15.48-14.47-5.55,6.9-14.81,14.47-26.42,14.47-12.45,0-22.05-8.42-22.05-20.87s10.43-19.86,24.4-24.74l23.9-8.42v-14.81c0-11.44-3.87-19.86-13.97-19.86-8.75,0-12.79,7.07-12.79,16.66,0,3.36.34,7.07,1.51,10.26l-11.28,1.52c-3.87-1.01-7.07-5.05-7.07-10.1,0-12.79,15.15-20.87,32.14-20.87,19.86,0,30.29,8.08,30.29,26.59v46.45Zm-18.85,2.19v-35.85l-17.33,7.24c-8.08,3.37-13.13,8.58-13.13,18.18s5.89,16.66,15.15,16.66c5.22,0,10.6-1.51,15.31-6.23Z"/>
  <rect class="cls-1" x="678.84" y="279.5" width="356.6" height="10"/>
  <rect class="cls-1" x="111.7" y="502.57" width="98.95" height="10"/>
</svg>